<svg xmlns="http://www.w3.org/2000/svg" viewBox="0 0 512 512">
  <rect width="512" height="512" rx="64" fill="#2563eb"/>
  <g transform="translate(96, 56)">
    <!-- Receipt paper -->
    <path d="M40 0 h240 a16 16 0 0 1 16 16 v360 l-24-16-24 16-24-16-24 16-24-16-24 16-24-16-24 16-24-16-24 16-24-16-24 16V16A16 16 0 0 1 40 0z" fill="white"/>
    <!-- Lines on receipt -->
    <rect x="72" y="60" width="176" height="12" rx="6" fill="#bfdbfe"/>
    <rect x="72" y="100" width="176" height="12" rx="6" fill="#bfdbfe"/>
    <rect x="72" y="140" width="120" height="12" rx="6" fill="#bfdbfe"/>
    <!-- Dollar sign circle -->
    <circle cx="200" cy="260" r="56" fill="#2563eb"/>
    <text x="200" y="282" text-anchor="middle" font-family="Arial,sans-serif" font-weight="bold" font-size="72" fill="white">$</text>
  </g>
</svg>
